<mxfile host="app.diagrams.net" modified="2024-04-22T09:33:19.176Z" agent="Mozilla/5.0 (Windows NT 10.0; Win64; x64) AppleWebKit/537.36 (KHTML, like Gecko) Chrome/123.0.0.0 Safari/537.36" etag="WCuWG4vwCJBXVSn_NF5W" version="24.2.5" type="github">
  <diagram name="Seite-1" id="sf7AtgLrdprSRRGnxpYT">
    <mxGraphModel dx="2191" dy="746" grid="1" gridSize="10" guides="1" tooltips="1" connect="1" arrows="1" fold="1" page="1" pageScale="1" pageWidth="827" pageHeight="1169" math="0" shadow="0">
      <root>
        <mxCell id="0" />
        <mxCell id="1" parent="0" />
        <mxCell id="HqAzUA0z8fRsG4E1p8cJ-1" value="Vermieter" style="rounded=0;whiteSpace=wrap;html=1;fillColor=#647687;strokeColor=#314354;fontColor=#ffffff;" vertex="1" parent="1">
          <mxGeometry x="-50" y="320" width="120" height="60" as="geometry" />
        </mxCell>
        <mxCell id="HqAzUA0z8fRsG4E1p8cJ-2" value="Mieter" style="rounded=0;whiteSpace=wrap;html=1;fillColor=#647687;fontColor=#ffffff;strokeColor=#314354;" vertex="1" parent="1">
          <mxGeometry x="730" y="320" width="120" height="60" as="geometry" />
        </mxCell>
        <mxCell id="HqAzUA0z8fRsG4E1p8cJ-3" value="ElektronikgerÃ¤t" style="rounded=0;whiteSpace=wrap;html=1;fillColor=#647687;fontColor=#ffffff;strokeColor=#314354;" vertex="1" parent="1">
          <mxGeometry x="340" y="320" width="120" height="60" as="geometry" />
        </mxCell>
        <mxCell id="HqAzUA0z8fRsG4E1p8cJ-5" value="" style="endArrow=none;html=1;rounded=0;exitX=1;exitY=0.5;exitDx=0;exitDy=0;entryX=0;entryY=0.5;entryDx=0;entryDy=0;entryPerimeter=0;" edge="1" parent="1" source="HqAzUA0z8fRsG4E1p8cJ-7" target="HqAzUA0z8fRsG4E1p8cJ-3">
          <mxGeometry width="50" height="50" relative="1" as="geometry">
            <mxPoint x="350" y="400" as="sourcePoint" />
            <mxPoint x="400" y="350" as="targetPoint" />
          </mxGeometry>
        </mxCell>
        <mxCell id="HqAzUA0z8fRsG4E1p8cJ-6" value="" style="endArrow=none;html=1;rounded=0;exitX=1;exitY=0.5;exitDx=0;exitDy=0;entryX=0;entryY=0.5;entryDx=0;entryDy=0;" edge="1" parent="1" source="HqAzUA0z8fRsG4E1p8cJ-9" target="HqAzUA0z8fRsG4E1p8cJ-2">
          <mxGeometry width="50" height="50" relative="1" as="geometry">
            <mxPoint x="460" y="349.5" as="sourcePoint" />
            <mxPoint x="640" y="349.5" as="targetPoint" />
          </mxGeometry>
        </mxCell>
        <mxCell id="HqAzUA0z8fRsG4E1p8cJ-8" value="" style="endArrow=none;html=1;rounded=0;exitX=1;exitY=0.5;exitDx=0;exitDy=0;entryX=0;entryY=0.5;entryDx=0;entryDy=0;entryPerimeter=0;" edge="1" parent="1" source="HqAzUA0z8fRsG4E1p8cJ-1" target="HqAzUA0z8fRsG4E1p8cJ-7">
          <mxGeometry width="50" height="50" relative="1" as="geometry">
            <mxPoint x="160" y="350" as="sourcePoint" />
            <mxPoint x="340" y="350" as="targetPoint" />
          </mxGeometry>
        </mxCell>
        <mxCell id="HqAzUA0z8fRsG4E1p8cJ-7" value="leiht aus" style="rhombus;whiteSpace=wrap;html=1;fillColor=#ffe6cc;strokeColor=#d79b00;" vertex="1" parent="1">
          <mxGeometry x="150" y="318.75" width="90" height="62.5" as="geometry" />
        </mxCell>
        <mxCell id="HqAzUA0z8fRsG4E1p8cJ-10" value="" style="endArrow=none;html=1;rounded=0;exitX=1;exitY=0.5;exitDx=0;exitDy=0;entryX=0;entryY=0.5;entryDx=0;entryDy=0;entryPerimeter=0;" edge="1" parent="1" target="HqAzUA0z8fRsG4E1p8cJ-9">
          <mxGeometry width="50" height="50" relative="1" as="geometry">
            <mxPoint x="460" y="349.5" as="sourcePoint" />
            <mxPoint x="640" y="349.5" as="targetPoint" />
          </mxGeometry>
        </mxCell>
        <mxCell id="HqAzUA0z8fRsG4E1p8cJ-9" value="leiht" style="rhombus;whiteSpace=wrap;html=1;fillColor=#ffe6cc;strokeColor=#d79b00;" vertex="1" parent="1">
          <mxGeometry x="555" y="322.5" width="90" height="55" as="geometry" />
        </mxCell>
        <mxCell id="HqAzUA0z8fRsG4E1p8cJ-11" value="Adresse" style="ellipse;whiteSpace=wrap;html=1;fillColor=#fff2cc;strokeColor=#d6b656;" vertex="1" parent="1">
          <mxGeometry x="-200" y="330" width="90" height="40" as="geometry" />
        </mxCell>
        <mxCell id="HqAzUA0z8fRsG4E1p8cJ-12" value="Name" style="ellipse;whiteSpace=wrap;html=1;fillColor=#fff2cc;strokeColor=#d6b656;" vertex="1" parent="1">
          <mxGeometry x="-160" y="250" width="90" height="40" as="geometry" />
        </mxCell>
        <mxCell id="HqAzUA0z8fRsG4E1p8cJ-13" value="Email" style="ellipse;whiteSpace=wrap;html=1;fillColor=#fff2cc;strokeColor=#d6b656;" vertex="1" parent="1">
          <mxGeometry x="-160" y="410" width="90" height="40" as="geometry" />
        </mxCell>
        <mxCell id="HqAzUA0z8fRsG4E1p8cJ-14" value="" style="endArrow=none;html=1;rounded=0;exitX=0.5;exitY=1;exitDx=0;exitDy=0;entryX=0;entryY=0.5;entryDx=0;entryDy=0;" edge="1" parent="1" source="HqAzUA0z8fRsG4E1p8cJ-12" target="HqAzUA0z8fRsG4E1p8cJ-1">
          <mxGeometry width="50" height="50" relative="1" as="geometry">
            <mxPoint x="-70" y="280" as="sourcePoint" />
            <mxPoint x="20" y="280" as="targetPoint" />
          </mxGeometry>
        </mxCell>
        <mxCell id="HqAzUA0z8fRsG4E1p8cJ-16" value="" style="endArrow=none;html=1;rounded=0;exitX=0;exitY=0.5;exitDx=0;exitDy=0;entryX=1;entryY=0.5;entryDx=0;entryDy=0;" edge="1" parent="1" source="HqAzUA0z8fRsG4E1p8cJ-1" target="HqAzUA0z8fRsG4E1p8cJ-11">
          <mxGeometry width="50" height="50" relative="1" as="geometry">
            <mxPoint x="-100" y="300" as="sourcePoint" />
            <mxPoint x="-40" y="360" as="targetPoint" />
          </mxGeometry>
        </mxCell>
        <mxCell id="HqAzUA0z8fRsG4E1p8cJ-17" value="" style="endArrow=none;html=1;rounded=0;exitX=0;exitY=0.5;exitDx=0;exitDy=0;" edge="1" parent="1" source="HqAzUA0z8fRsG4E1p8cJ-1" target="HqAzUA0z8fRsG4E1p8cJ-13">
          <mxGeometry width="50" height="50" relative="1" as="geometry">
            <mxPoint x="-40" y="360" as="sourcePoint" />
            <mxPoint x="-100" y="360" as="targetPoint" />
          </mxGeometry>
        </mxCell>
        <mxCell id="HqAzUA0z8fRsG4E1p8cJ-18" value="Mietpreis" style="ellipse;whiteSpace=wrap;html=1;fillColor=#fff2cc;strokeColor=#d6b656;" vertex="1" parent="1">
          <mxGeometry x="490" y="60" width="90" height="40" as="geometry" />
        </mxCell>
        <mxCell id="HqAzUA0z8fRsG4E1p8cJ-19" value="" style="endArrow=none;html=1;rounded=0;exitX=0.5;exitY=0;exitDx=0;exitDy=0;entryX=0.5;entryY=1;entryDx=0;entryDy=0;" edge="1" parent="1" source="HqAzUA0z8fRsG4E1p8cJ-3" target="HqAzUA0z8fRsG4E1p8cJ-18">
          <mxGeometry width="50" height="50" relative="1" as="geometry">
            <mxPoint x="444" y="220" as="sourcePoint" />
            <mxPoint x="384" y="220" as="targetPoint" />
          </mxGeometry>
        </mxCell>
        <mxCell id="HqAzUA0z8fRsG4E1p8cJ-20" value="" style="endArrow=none;html=1;rounded=0;exitX=0.5;exitY=1;exitDx=0;exitDy=0;entryX=0.5;entryY=1;entryDx=0;entryDy=0;" edge="1" parent="1" source="HqAzUA0z8fRsG4E1p8cJ-32" target="HqAzUA0z8fRsG4E1p8cJ-21">
          <mxGeometry width="50" height="50" relative="1" as="geometry">
            <mxPoint x="470" y="280" as="sourcePoint" />
            <mxPoint x="530" y="130" as="targetPoint" />
          </mxGeometry>
        </mxCell>
        <mxCell id="HqAzUA0z8fRsG4E1p8cJ-21" value="Mietdauer" style="ellipse;whiteSpace=wrap;html=1;fillColor=#fff2cc;strokeColor=#d6b656;" vertex="1" parent="1">
          <mxGeometry x="175" y="790" width="90" height="40" as="geometry" />
        </mxCell>
        <mxCell id="HqAzUA0z8fRsG4E1p8cJ-23" value="Modellname" style="ellipse;whiteSpace=wrap;html=1;fillColor=#fff2cc;strokeColor=#d6b656;" vertex="1" parent="1">
          <mxGeometry x="390" y="30" width="90" height="40" as="geometry" />
        </mxCell>
        <mxCell id="HqAzUA0z8fRsG4E1p8cJ-24" value="Vermieter" style="ellipse;whiteSpace=wrap;html=1;fillColor=#fff2cc;strokeColor=#d6b656;" vertex="1" parent="1">
          <mxGeometry x="270" y="30" width="90" height="40" as="geometry" />
        </mxCell>
        <mxCell id="HqAzUA0z8fRsG4E1p8cJ-25" value="Vermieter" style="ellipse;whiteSpace=wrap;html=1;fillColor=#fff2cc;strokeColor=#d6b656;" vertex="1" parent="1">
          <mxGeometry x="580" y="110" width="90" height="40" as="geometry" />
        </mxCell>
        <mxCell id="HqAzUA0z8fRsG4E1p8cJ-26" value="" style="endArrow=none;html=1;rounded=0;entryX=0.5;entryY=1;entryDx=0;entryDy=0;exitX=0.5;exitY=0;exitDx=0;exitDy=0;" edge="1" parent="1" source="HqAzUA0z8fRsG4E1p8cJ-3" target="HqAzUA0z8fRsG4E1p8cJ-23">
          <mxGeometry width="50" height="50" relative="1" as="geometry">
            <mxPoint x="310" y="290" as="sourcePoint" />
            <mxPoint x="410" y="100" as="targetPoint" />
          </mxGeometry>
        </mxCell>
        <mxCell id="HqAzUA0z8fRsG4E1p8cJ-27" value="" style="endArrow=none;html=1;rounded=0;entryX=0.5;entryY=1;entryDx=0;entryDy=0;exitX=0.5;exitY=0;exitDx=0;exitDy=0;" edge="1" parent="1" source="HqAzUA0z8fRsG4E1p8cJ-3" target="HqAzUA0z8fRsG4E1p8cJ-24">
          <mxGeometry width="50" height="50" relative="1" as="geometry">
            <mxPoint x="410" y="330" as="sourcePoint" />
            <mxPoint x="320" y="130" as="targetPoint" />
          </mxGeometry>
        </mxCell>
        <mxCell id="HqAzUA0z8fRsG4E1p8cJ-28" value="" style="endArrow=none;html=1;rounded=0;exitX=0.5;exitY=0;exitDx=0;exitDy=0;entryX=0.5;entryY=1;entryDx=0;entryDy=0;" edge="1" parent="1" source="HqAzUA0z8fRsG4E1p8cJ-3" target="HqAzUA0z8fRsG4E1p8cJ-25">
          <mxGeometry width="50" height="50" relative="1" as="geometry">
            <mxPoint x="410" y="330" as="sourcePoint" />
            <mxPoint x="495" y="130" as="targetPoint" />
          </mxGeometry>
        </mxCell>
        <mxCell id="HqAzUA0z8fRsG4E1p8cJ-30" value="Eigenschaften" style="ellipse;whiteSpace=wrap;html=1;fillColor=#fff2cc;strokeColor=#d6b656;" vertex="1" parent="1">
          <mxGeometry x="170" y="60" width="90" height="40" as="geometry" />
        </mxCell>
        <mxCell id="HqAzUA0z8fRsG4E1p8cJ-31" value="" style="endArrow=none;html=1;rounded=0;entryX=0.5;entryY=1;entryDx=0;entryDy=0;" edge="1" parent="1" target="HqAzUA0z8fRsG4E1p8cJ-30">
          <mxGeometry width="50" height="50" relative="1" as="geometry">
            <mxPoint x="400" y="320" as="sourcePoint" />
            <mxPoint x="255" y="130" as="targetPoint" />
          </mxGeometry>
        </mxCell>
        <mxCell id="HqAzUA0z8fRsG4E1p8cJ-32" value="Buchung" style="rounded=0;whiteSpace=wrap;html=1;fillColor=#647687;strokeColor=#314354;fontColor=#ffffff;" vertex="1" parent="1">
          <mxGeometry x="340" y="585" width="120" height="60" as="geometry" />
        </mxCell>
        <mxCell id="HqAzUA0z8fRsG4E1p8cJ-33" value="koordiniert" style="rhombus;whiteSpace=wrap;html=1;fillColor=#ffe6cc;strokeColor=#d79b00;" vertex="1" parent="1">
          <mxGeometry x="-30" y="590" width="80" height="50" as="geometry" />
        </mxCell>
        <mxCell id="HqAzUA0z8fRsG4E1p8cJ-34" value="wird verwendet" style="rhombus;whiteSpace=wrap;html=1;fillColor=#ffe6cc;strokeColor=#d79b00;" vertex="1" parent="1">
          <mxGeometry x="355" y="450" width="90" height="60" as="geometry" />
        </mxCell>
        <mxCell id="HqAzUA0z8fRsG4E1p8cJ-35" value="" style="endArrow=none;html=1;rounded=0;entryX=0.5;entryY=1;entryDx=0;entryDy=0;exitX=0.5;exitY=0;exitDx=0;exitDy=0;" edge="1" parent="1" source="HqAzUA0z8fRsG4E1p8cJ-34" target="HqAzUA0z8fRsG4E1p8cJ-3">
          <mxGeometry width="50" height="50" relative="1" as="geometry">
            <mxPoint x="400" y="490" as="sourcePoint" />
            <mxPoint x="450" y="400" as="targetPoint" />
          </mxGeometry>
        </mxCell>
        <mxCell id="HqAzUA0z8fRsG4E1p8cJ-36" value="" style="endArrow=none;html=1;rounded=0;entryX=0.5;entryY=1;entryDx=0;entryDy=0;exitX=0.5;exitY=0;exitDx=0;exitDy=0;" edge="1" parent="1" source="HqAzUA0z8fRsG4E1p8cJ-32" target="HqAzUA0z8fRsG4E1p8cJ-34">
          <mxGeometry width="50" height="50" relative="1" as="geometry">
            <mxPoint x="399.5" y="580" as="sourcePoint" />
            <mxPoint x="399.5" y="500" as="targetPoint" />
          </mxGeometry>
        </mxCell>
        <mxCell id="HqAzUA0z8fRsG4E1p8cJ-37" value="" style="endArrow=none;html=1;rounded=0;entryX=0.5;entryY=1;entryDx=0;entryDy=0;exitX=0.5;exitY=0;exitDx=0;exitDy=0;" edge="1" parent="1" source="HqAzUA0z8fRsG4E1p8cJ-33" target="HqAzUA0z8fRsG4E1p8cJ-1">
          <mxGeometry width="50" height="50" relative="1" as="geometry">
            <mxPoint x="9.5" y="515" as="sourcePoint" />
            <mxPoint x="9.5" y="445" as="targetPoint" />
          </mxGeometry>
        </mxCell>
        <mxCell id="HqAzUA0z8fRsG4E1p8cJ-38" value="" style="endArrow=none;html=1;rounded=0;exitX=1;exitY=0.5;exitDx=0;exitDy=0;entryX=0;entryY=0.5;entryDx=0;entryDy=0;" edge="1" parent="1" source="HqAzUA0z8fRsG4E1p8cJ-33" target="HqAzUA0z8fRsG4E1p8cJ-32">
          <mxGeometry width="50" height="50" relative="1" as="geometry">
            <mxPoint x="90" y="614.5" as="sourcePoint" />
            <mxPoint x="180" y="615.5" as="targetPoint" />
          </mxGeometry>
        </mxCell>
        <mxCell id="HqAzUA0z8fRsG4E1p8cJ-39" value="" style="endArrow=none;html=1;rounded=0;entryX=0.5;entryY=1;entryDx=0;entryDy=0;exitX=0.5;exitY=0;exitDx=0;exitDy=0;" edge="1" parent="1" source="HqAzUA0z8fRsG4E1p8cJ-40" target="HqAzUA0z8fRsG4E1p8cJ-2">
          <mxGeometry width="50" height="50" relative="1" as="geometry">
            <mxPoint x="670" y="452.5" as="sourcePoint" />
            <mxPoint x="670" y="382.5" as="targetPoint" />
          </mxGeometry>
        </mxCell>
        <mxCell id="HqAzUA0z8fRsG4E1p8cJ-40" value="macht" style="rhombus;whiteSpace=wrap;html=1;fillColor=#ffe6cc;strokeColor=#d79b00;" vertex="1" parent="1">
          <mxGeometry x="745" y="585" width="90" height="60" as="geometry" />
        </mxCell>
        <mxCell id="HqAzUA0z8fRsG4E1p8cJ-42" value="" style="endArrow=none;html=1;rounded=0;exitX=1;exitY=0.5;exitDx=0;exitDy=0;entryX=0;entryY=0.5;entryDx=0;entryDy=0;" edge="1" parent="1" source="HqAzUA0z8fRsG4E1p8cJ-32" target="HqAzUA0z8fRsG4E1p8cJ-40">
          <mxGeometry width="50" height="50" relative="1" as="geometry">
            <mxPoint x="60" y="625" as="sourcePoint" />
            <mxPoint x="350" y="625" as="targetPoint" />
          </mxGeometry>
        </mxCell>
        <mxCell id="HqAzUA0z8fRsG4E1p8cJ-43" value="Bilder" style="ellipse;whiteSpace=wrap;html=1;fillColor=#fff2cc;strokeColor=#d6b656;" vertex="1" parent="1">
          <mxGeometry x="110" y="110" width="90" height="40" as="geometry" />
        </mxCell>
        <mxCell id="HqAzUA0z8fRsG4E1p8cJ-44" value="" style="endArrow=none;html=1;rounded=0;entryX=0.5;entryY=1;entryDx=0;entryDy=0;exitX=0.5;exitY=0;exitDx=0;exitDy=0;" edge="1" parent="1" source="HqAzUA0z8fRsG4E1p8cJ-3" target="HqAzUA0z8fRsG4E1p8cJ-43">
          <mxGeometry width="50" height="50" relative="1" as="geometry">
            <mxPoint x="410" y="330" as="sourcePoint" />
            <mxPoint x="195" y="130" as="targetPoint" />
          </mxGeometry>
        </mxCell>
        <mxCell id="HqAzUA0z8fRsG4E1p8cJ-45" value="Mieter" style="ellipse;whiteSpace=wrap;html=1;fillColor=#fff2cc;strokeColor=#d6b656;" vertex="1" parent="1">
          <mxGeometry x="360" y="850" width="90" height="40" as="geometry" />
        </mxCell>
        <mxCell id="HqAzUA0z8fRsG4E1p8cJ-46" value="" style="endArrow=none;html=1;rounded=0;entryX=0.5;entryY=1;entryDx=0;entryDy=0;exitX=0.5;exitY=0;exitDx=0;exitDy=0;" edge="1" parent="1" source="HqAzUA0z8fRsG4E1p8cJ-45" target="HqAzUA0z8fRsG4E1p8cJ-32">
          <mxGeometry width="50" height="50" relative="1" as="geometry">
            <mxPoint x="438" y="930" as="sourcePoint" />
            <mxPoint x="413" y="690" as="targetPoint" />
          </mxGeometry>
        </mxCell>
        <mxCell id="HqAzUA0z8fRsG4E1p8cJ-47" value="Vermieter" style="ellipse;whiteSpace=wrap;html=1;fillColor=#fff2cc;strokeColor=#d6b656;" vertex="1" parent="1">
          <mxGeometry x="540" y="790" width="90" height="40" as="geometry" />
        </mxCell>
        <mxCell id="HqAzUA0z8fRsG4E1p8cJ-48" value="" style="endArrow=none;html=1;rounded=0;entryX=0.5;entryY=1;entryDx=0;entryDy=0;exitX=0.5;exitY=0;exitDx=0;exitDy=0;" edge="1" parent="1" source="HqAzUA0z8fRsG4E1p8cJ-47" target="HqAzUA0z8fRsG4E1p8cJ-32">
          <mxGeometry width="50" height="50" relative="1" as="geometry">
            <mxPoint x="410" y="840" as="sourcePoint" />
            <mxPoint x="410" y="655" as="targetPoint" />
          </mxGeometry>
        </mxCell>
        <mxCell id="HqAzUA0z8fRsG4E1p8cJ-49" value="Modellname" style="ellipse;whiteSpace=wrap;html=1;fillColor=#fff2cc;strokeColor=#d6b656;" vertex="1" parent="1">
          <mxGeometry x="250" y="830" width="90" height="40" as="geometry" />
        </mxCell>
        <mxCell id="HqAzUA0z8fRsG4E1p8cJ-50" value="" style="endArrow=none;html=1;rounded=0;entryX=0.5;entryY=1;entryDx=0;entryDy=0;exitX=0.5;exitY=0;exitDx=0;exitDy=0;" edge="1" parent="1" source="HqAzUA0z8fRsG4E1p8cJ-49" target="HqAzUA0z8fRsG4E1p8cJ-32">
          <mxGeometry width="50" height="50" relative="1" as="geometry">
            <mxPoint x="360" y="840" as="sourcePoint" />
            <mxPoint x="360" y="655" as="targetPoint" />
          </mxGeometry>
        </mxCell>
        <mxCell id="HqAzUA0z8fRsG4E1p8cJ-51" value="Mietpreis" style="ellipse;whiteSpace=wrap;html=1;fillColor=#fff2cc;strokeColor=#d6b656;" vertex="1" parent="1">
          <mxGeometry x="470" y="830" width="90" height="40" as="geometry" />
        </mxCell>
        <mxCell id="HqAzUA0z8fRsG4E1p8cJ-52" value="" style="endArrow=none;html=1;rounded=0;entryX=0.5;entryY=1;entryDx=0;entryDy=0;exitX=0.5;exitY=0;exitDx=0;exitDy=0;" edge="1" parent="1" source="HqAzUA0z8fRsG4E1p8cJ-51" target="HqAzUA0z8fRsG4E1p8cJ-32">
          <mxGeometry width="50" height="50" relative="1" as="geometry">
            <mxPoint x="415" y="860" as="sourcePoint" />
            <mxPoint x="410" y="655" as="targetPoint" />
          </mxGeometry>
        </mxCell>
        <mxCell id="HqAzUA0z8fRsG4E1p8cJ-54" value="Name" style="ellipse;whiteSpace=wrap;html=1;fillColor=#fff2cc;strokeColor=#d6b656;" vertex="1" parent="1">
          <mxGeometry x="850" y="250" width="90" height="40" as="geometry" />
        </mxCell>
        <mxCell id="HqAzUA0z8fRsG4E1p8cJ-55" value="Adresse" style="ellipse;whiteSpace=wrap;html=1;fillColor=#fff2cc;strokeColor=#d6b656;" vertex="1" parent="1">
          <mxGeometry x="910" y="330" width="90" height="40" as="geometry" />
        </mxCell>
        <mxCell id="HqAzUA0z8fRsG4E1p8cJ-56" value="Email" style="ellipse;whiteSpace=wrap;html=1;fillColor=#fff2cc;strokeColor=#d6b656;" vertex="1" parent="1">
          <mxGeometry x="850" y="410" width="90" height="40" as="geometry" />
        </mxCell>
        <mxCell id="HqAzUA0z8fRsG4E1p8cJ-57" value="" style="endArrow=none;html=1;rounded=0;exitX=1;exitY=0.5;exitDx=0;exitDy=0;entryX=0;entryY=0.5;entryDx=0;entryDy=0;" edge="1" parent="1" source="HqAzUA0z8fRsG4E1p8cJ-2" target="HqAzUA0z8fRsG4E1p8cJ-55">
          <mxGeometry width="50" height="50" relative="1" as="geometry">
            <mxPoint x="890" y="330" as="sourcePoint" />
            <mxPoint x="900" y="380" as="targetPoint" />
          </mxGeometry>
        </mxCell>
        <mxCell id="HqAzUA0z8fRsG4E1p8cJ-58" value="" style="endArrow=none;html=1;rounded=0;exitX=1;exitY=0.5;exitDx=0;exitDy=0;entryX=0.5;entryY=1;entryDx=0;entryDy=0;" edge="1" parent="1" source="HqAzUA0z8fRsG4E1p8cJ-2" target="HqAzUA0z8fRsG4E1p8cJ-54">
          <mxGeometry width="50" height="50" relative="1" as="geometry">
            <mxPoint x="860" y="360" as="sourcePoint" />
            <mxPoint x="920" y="360" as="targetPoint" />
          </mxGeometry>
        </mxCell>
        <mxCell id="HqAzUA0z8fRsG4E1p8cJ-59" value="" style="endArrow=none;html=1;rounded=0;exitX=1;exitY=0.5;exitDx=0;exitDy=0;entryX=0.5;entryY=0;entryDx=0;entryDy=0;" edge="1" parent="1" source="HqAzUA0z8fRsG4E1p8cJ-2" target="HqAzUA0z8fRsG4E1p8cJ-56">
          <mxGeometry width="50" height="50" relative="1" as="geometry">
            <mxPoint x="860" y="360" as="sourcePoint" />
            <mxPoint x="920" y="360" as="targetPoint" />
          </mxGeometry>
        </mxCell>
      </root>
    </mxGraphModel>
  </diagram>
</mxfile>
